# xmcd
#
# Track frame offsets:
#	150
#	18633
#	34973
#	51406
#	71561
#	91968
#	110253
#	127645
#	141393
#	154634
#	172683
#	187375
#	206318
#	223222
#	242350
#	257713
#	272423
#	287237
#	304906
#	318772
#
# Disc length: 4461 seconds
#
# Revision: 4
# Processed by: cddbd v1.5.1PL2 Copyright (c) Steve Scherf et al.
# Submitted via: MusicWizard 6.0.1
#
DISCID=20116b14
DTITLE=Various Artist - Bravo Hits 29 [CD 2/2)
DYEAR=2000
DGENRE=Pop
TTITLE0=A-HA - Summer Moved On
TTITLE1=Sasha - Let Me Be The One
TTITLE2=Gabrielle - Rise
TTITLE3=All Saints - Pure Shores
TTITLE4=Destiny´s Child - Say My Name
TTITLE5=Ricky Martin - Private Emotion
TTITLE6=Marc Anthony - You Sang To Me
TTITLE7=Tom Jones - Mama Told Me Not To Come
TTITLE8=Bomfunk Mc´s - Freestyler
TTITLE9=Artful Doogers - Movin Too Fast
TTITLE10=Miles - Perfect World
TTITLE11=Band Ohne Namen - Take My Haert
TTITLE12=Oceana - 48 Stunden
TTITLE13=Sabrina Setlur - Alles
TTITLE14=Nomansland - Greensleeves
TTITLE15=Mabel - Disco  Disco
TTITLE16=Scorei - Sag Mir Warum
TTITLE17=Fettes Brot - Da Draussen
TTITLE18=Stefab Raab - Wadde Hadde Dudde Da
TTITLE19=Die Bewohner - Big Brother Is O.K
EXTD=YEAR: 2000
EXTT0=
EXTT1=
EXTT2=
EXTT3=
EXTT4=
EXTT5=
EXTT6=
EXTT7=
EXTT8=
EXTT9=
EXTT10=
EXTT11=
EXTT12=
EXTT13=
EXTT14=
EXTT15=
EXTT16=
EXTT17=
EXTT18=
EXTT19=
PLAYORDER=
